<svg id="visual" viewBox="0 0 900 600" width="900" height="600" xmlns="http://www.w3.org/2000/svg" xmlns:xlink="http://www.w3.org/1999/xlink" version="1.1"><path d="M836 600L818 600L818 554L809 554L809 508L836 508L836 462L845 462L845 415L791 415L791 369L818 369L818 323L827 323L827 277L845 277L845 231L800 231L800 185L827 185L827 138L818 138L818 92L809 92L809 46L818 46L818 0L900 0L900 46L900 46L900 92L900 92L900 138L900 138L900 185L900 185L900 231L900 231L900 277L900 277L900 323L900 323L900 369L900 369L900 415L900 415L900 462L900 462L900 508L900 508L900 554L900 554L900 600L900 600Z" fill="#1391a5"></path><path d="M809 600L782 600L782 554L782 554L782 508L800 508L800 462L800 462L800 415L746 415L746 369L773 369L773 323L800 323L800 277L800 277L800 231L764 231L764 185L782 185L782 138L791 138L791 92L782 92L782 46L773 46L773 0L819 0L819 46L810 46L810 92L819 92L819 138L828 138L828 185L801 185L801 231L846 231L846 277L828 277L828 323L819 323L819 369L792 369L792 415L846 415L846 462L837 462L837 508L810 508L810 554L819 554L819 600L837 600Z" fill="#008ba5"></path><path d="M755 600L728 600L728 554L746 554L746 508L764 508L764 462L755 462L755 415L701 415L701 369L719 369L719 323L755 323L755 277L737 277L737 231L701 231L701 185L719 185L719 138L728 138L728 92L728 92L728 46L710 46L710 0L774 0L774 46L783 46L783 92L792 92L792 138L783 138L783 185L765 185L765 231L801 231L801 277L801 277L801 323L774 323L774 369L747 369L747 415L801 415L801 462L801 462L801 508L783 508L783 554L783 554L783 600L810 600Z" fill="#0084a4"></path><path d="M719 600L692 600L692 554L710 554L710 508L728 508L728 462L719 462L719 415L665 415L665 369L683 369L683 323L719 323L719 277L710 277L710 231L665 231L665 185L692 185L692 138L701 138L701 92L692 92L692 46L683 46L683 0L711 0L711 46L729 46L729 92L729 92L729 138L720 138L720 185L702 185L702 231L738 231L738 277L756 277L756 323L720 323L720 369L702 369L702 415L756 415L756 462L765 462L765 508L747 508L747 554L729 554L729 600L756 600Z" fill="#007ea3"></path><path d="M602 600L539 600L539 554L539 554L539 508L566 508L566 462L539 462L539 415L467 415L467 369L476 369L476 323L557 323L557 277L557 277L557 231L530 231L530 185L476 185L476 138L503 138L503 92L503 92L503 46L512 46L512 0L684 0L684 46L693 46L693 92L702 92L702 138L693 138L693 185L666 185L666 231L711 231L711 277L720 277L720 323L684 323L684 369L666 369L666 415L720 415L720 462L729 462L729 508L711 508L711 554L693 554L693 600L720 600Z" fill="#0077a1"></path><path d="M530 600L476 600L476 554L467 554L467 508L521 508L521 462L476 462L476 415L413 415L413 369L440 369L440 323L494 323L494 277L503 277L503 231L485 231L485 185L440 185L440 138L440 138L440 92L440 92L440 46L467 46L467 0L513 0L513 46L504 46L504 92L504 92L504 138L477 138L477 185L531 185L531 231L558 231L558 277L558 277L558 323L477 323L477 369L468 369L468 415L540 415L540 462L567 462L567 508L540 508L540 554L540 554L540 600L603 600Z" fill="#00709e"></path><path d="M476 600L431 600L431 554L431 554L431 508L467 508L467 462L440 462L440 415L377 415L377 369L395 369L395 323L449 323L449 277L458 277L458 231L440 231L440 185L395 185L395 138L395 138L395 92L386 92L386 46L413 46L413 0L468 0L468 46L441 46L441 92L441 92L441 138L441 138L441 185L486 185L486 231L504 231L504 277L495 277L495 323L441 323L441 369L414 369L414 415L477 415L477 462L522 462L522 508L468 508L468 554L477 554L477 600L531 600Z" fill="#006a9b"></path><path d="M278 600L242 600L242 554L233 554L233 508L242 508L242 462L233 462L233 415L215 415L215 369L251 369L251 323L287 323L287 277L242 277L242 231L206 231L206 185L206 185L206 138L251 138L251 92L233 92L233 46L269 46L269 0L414 0L414 46L387 46L387 92L396 92L396 138L396 138L396 185L441 185L441 231L459 231L459 277L450 277L450 323L396 323L396 369L378 369L378 415L441 415L441 462L468 462L468 508L432 508L432 554L432 554L432 600L477 600Z" fill="#066398"></path><path d="M242 600L197 600L197 554L206 554L206 508L197 508L197 462L197 462L197 415L188 415L188 369L215 369L215 323L242 323L242 277L197 277L197 231L179 231L179 185L161 185L161 138L206 138L206 92L188 92L188 46L224 46L224 0L270 0L270 46L234 46L234 92L252 92L252 138L207 138L207 185L207 185L207 231L243 231L243 277L288 277L288 323L252 323L252 369L216 369L216 415L234 415L234 462L243 462L243 508L234 508L234 554L243 554L243 600L279 600Z" fill="#0f5c94"></path><path d="M116 600L89 600L89 554L98 554L98 508L98 508L98 462L125 462L125 415L116 415L116 369L107 369L107 323L107 323L107 277L125 277L125 231L98 231L98 185L80 185L80 138L80 138L80 92L98 92L98 46L116 46L116 0L225 0L225 46L189 46L189 92L207 92L207 138L162 138L162 185L180 185L180 231L198 231L198 277L243 277L243 323L216 323L216 369L189 369L189 415L198 415L198 462L198 462L198 508L207 508L207 554L198 554L198 600L243 600Z" fill="#185590"></path><path d="M80 600L44 600L44 554L53 554L53 508L62 508L62 462L80 462L80 415L62 415L62 369L53 369L53 323L71 323L71 277L80 277L80 231L53 231L53 185L44 185L44 138L44 138L44 92L44 92L44 46L62 46L62 0L117 0L117 46L99 46L99 92L81 92L81 138L81 138L81 185L99 185L99 231L126 231L126 277L108 277L108 323L108 323L108 369L117 369L117 415L126 415L126 462L99 462L99 508L99 508L99 554L90 554L90 600L117 600Z" fill="#204d8b"></path><path d="M0 600L0 600L0 554L0 554L0 508L0 508L0 462L0 462L0 415L0 415L0 369L0 369L0 323L0 323L0 277L0 277L0 231L0 231L0 185L0 185L0 138L0 138L0 92L0 92L0 46L0 46L0 0L63 0L63 46L45 46L45 92L45 92L45 138L45 138L45 185L54 185L54 231L81 231L81 277L72 277L72 323L54 323L54 369L63 369L63 415L81 415L81 462L63 462L63 508L54 508L54 554L45 554L45 600L81 600Z" fill="#274685"></path></svg>